<?xml version="1.0" encoding="UTF-8"?>
<!DOCTYPE svg PUBLIC "-//W3C//DTD SVG 1.1//EN" "http://www.w3.org/Graphics/SVG/1.1/DTD/svg11.dtd">
<svg xmlns="http://www.w3.org/2000/svg" version="1.1" width="600px" height="600px" style="shape-rendering:geometricPrecision; text-rendering:geometricPrecision; image-rendering:optimizeQuality; fill-rule:evenodd; clip-rule:evenodd" xmlns:xlink="http://www.w3.org/1999/xlink">
<g><path style="opacity:0.111" fill="#030503" d="M 335.5,60.5 C 339.683,59.8456 342.516,61.5123 344,65.5C 401.138,165.678 458.804,265.678 517,365.5C 519.073,369.547 518.907,373.38 516.5,377C 490.746,377.981 465.079,377.648 439.5,376C 438.333,374.833 437.167,373.667 436,372.5C 428.252,358.669 420.252,345.002 412,331.5C 374.054,265.832 336.388,199.832 299,133.5C 275.573,132.672 252.073,132.172 228.5,132C 225.961,130.195 224.961,127.695 225.5,124.5C 226.833,124.5 228.167,124.5 229.5,124.5C 252.649,124.465 275.649,124.465 298.5,124.5C 298.5,125.167 298.833,125.5 299.5,125.5C 299.769,128.015 300.769,130.015 302.5,131.5C 302.833,131.5 303.167,131.5 303.5,131.5C 304.656,135.494 306.489,139.16 309,142.5C 309.495,144.473 309.662,146.473 309.5,148.5C 310.5,148.5 311.5,148.5 312.5,148.5C 312.157,150.483 312.824,151.817 314.5,152.5C 317.011,158.167 320.177,163.5 324,168.5C 324.494,170.134 324.66,171.801 324.5,173.5C 325.5,173.5 326.5,173.5 327.5,173.5C 328.111,176.721 329.278,179.721 331,182.5C 331.671,183.252 332.504,183.586 333.5,183.5C 334.059,186.843 335.392,189.843 337.5,192.5C 335.996,195.506 336.663,196.172 339.5,194.5C 340.111,197.721 341.278,200.721 343,203.5C 345.692,204.702 346.526,206.536 345.5,209C 346.094,209.464 346.761,209.631 347.5,209.5C 350.471,215.421 353.138,221.421 355.5,227.5C 356.086,227.291 356.586,226.957 357,226.5C 358.942,230.069 361.108,233.402 363.5,236.5C 363.343,237.873 363.51,239.207 364,240.5C 366.446,241.445 367.946,243.111 368.5,245.5C 369.301,247.999 370.634,249.999 372.5,251.5C 372.688,254.206 373.688,256.539 375.5,258.5C 375.491,260.308 375.991,261.975 377,263.5C 377.333,263.167 377.667,262.833 378,262.5C 379.397,265.354 380.897,268.02 382.5,270.5C 380.967,272.79 381.3,273.456 383.5,272.5C 383.975,275.155 385.309,277.155 387.5,278.5C 388.657,281.073 389.991,283.573 391.5,286C 390.448,287.716 391.114,288.716 393.5,289C 393.915,291.026 394.915,292.526 396.5,293.5C 397.856,297.578 399.356,301.578 401,305.5C 401.333,305.167 401.667,304.833 402,304.5C 402.278,305.416 402.778,306.082 403.5,306.5C 403.586,307.496 403.252,308.329 402.5,309C 403.448,309.483 404.448,309.649 405.5,309.5C 406.966,313.11 408.466,316.776 410,320.5C 410.333,320.167 410.667,319.833 411,319.5C 411.278,320.416 411.778,321.082 412.5,321.5C 412.586,322.496 412.252,323.329 411.5,324C 412.448,324.483 413.448,324.649 414.5,324.5C 415.138,326.46 415.138,328.293 414.5,330C 415.448,330.483 416.448,330.649 417.5,330.5C 419.464,333.93 420.964,337.597 422,341.5C 422.333,341.167 422.667,340.833 423,340.5C 423.278,341.416 423.778,342.082 424.5,342.5C 424.586,343.496 424.252,344.329 423.5,345C 424.448,345.483 425.448,345.649 426.5,345.5C 426.259,348.034 427.259,349.7 429.5,350.5C 429.031,353.393 430.031,355.393 432.5,356.5C 432.163,358.849 432.663,361.182 434,363.5C 435.131,362.396 435.965,362.729 436.5,364.5C 435.391,366.214 436.058,366.881 438.5,366.5C 438.833,367.5 439.5,368.167 440.5,368.5C 463.994,369.498 487.661,369.831 511.5,369.5C 511.768,367.901 511.434,366.568 510.5,365.5C 510.446,363.368 509.446,362.035 507.5,361.5C 503.556,352.598 498.89,344.264 493.5,336.5C 492.707,334.082 491.374,332.082 489.5,330.5C 489.741,327.966 488.741,326.3 486.5,325.5C 484.388,320.475 481.721,315.808 478.5,311.5C 478.005,309.518 477.505,307.518 477,305.5C 476.329,304.748 475.496,304.414 474.5,304.5C 472.732,300.86 470.732,297.527 468.5,294.5C 466.767,290.596 465.267,286.596 464,282.5C 463.667,282.833 463.333,283.167 463,283.5C 460.137,279.107 457.804,274.44 456,269.5C 452.884,265.571 450.051,261.571 447.5,257.5C 445.077,252.317 442.41,247.317 439.5,242.5C 439.167,242.5 438.833,242.5 438.5,242.5C 437.862,240.54 437.862,238.707 438.5,237C 435.938,235.635 433.938,233.801 432.5,231.5C 432.5,230.833 432.167,230.5 431.5,230.5C 431.66,228.801 431.494,227.134 431,225.5C 430.667,225.833 430.333,226.167 430,226.5C 429.451,224.24 428.284,222.574 426.5,221.5C 425.248,219.661 425.248,217.828 426.5,216C 425.207,215.51 423.873,215.343 422.5,215.5C 422.923,213.219 422.256,211.552 420.5,210.5C 420.201,208.545 419.201,207.211 417.5,206.5C 417.036,202.969 415.702,199.803 413.5,197C 413.645,196.228 413.978,195.561 414.5,195C 413.207,194.51 411.873,194.343 410.5,194.5C 410.923,192.219 410.256,190.552 408.5,189.5C 408.201,187.545 407.201,186.211 405.5,185.5C 402.608,180.045 399.942,174.378 397.5,168.5C 396.333,166.921 395,165.588 393.5,164.5C 391.208,158.609 388.542,152.943 385.5,147.5C 384.333,145.921 383,144.588 381.5,143.5C 380.961,141.495 380.295,139.495 379.5,137.5C 378.311,135.637 376.978,133.97 375.5,132.5C 375.5,131.833 375.167,131.5 374.5,131.5C 374.785,129.712 374.452,128.045 373.5,126.5C 372.333,124.921 371,123.588 369.5,122.5C 368.209,118.076 366.042,114.076 363,110.5C 362.51,109.207 362.343,107.873 362.5,106.5C 361.5,106.5 360.5,106.5 359.5,106.5C 359.923,104.219 359.256,102.552 357.5,101.5C 353.783,94.4706 350.116,87.4706 346.5,80.5C 345.181,78.2137 343.515,76.2137 341.5,74.5C 339.795,69.6441 337.795,64.9775 335.5,60.5 Z"/></g>
<g><path style="opacity:0.996" fill="#0b6b91" d="M 263.5,60.5 C 287.5,60.5 311.5,60.5 335.5,60.5C 337.795,64.9775 339.795,69.6441 341.5,74.5C 340.596,73.791 340.263,72.791 340.5,71.5C 339.167,71.5 337.833,71.5 336.5,71.5C 337.303,67.8307 336.136,65.164 333,63.5C 332.333,64.1667 331.667,64.8333 331,65.5C 326.667,73.5 322.333,81.5 318,89.5C 314.25,92.6547 311.75,96.6547 310.5,101.5C 309.24,102.382 308.074,103.382 307,104.5C 304.314,111.415 301.814,118.415 299.5,125.5C 298.833,125.5 298.5,125.167 298.5,124.5C 298.672,123.508 298.338,122.842 297.5,122.5C 292.948,113.064 288.115,103.731 283,94.5C 278.691,89.9065 275.691,84.5732 274,78.5C 271.089,75.0105 268.422,71.3438 266,67.5C 264.882,65.2346 264.049,62.9013 263.5,60.5 Z"/></g>
<g><path style="opacity:1" fill="#018ab1" d="M 341.5,74.5 C 343.515,76.2137 345.181,78.2137 346.5,80.5C 350.116,87.4706 353.783,94.4706 357.5,101.5C 357.201,103.604 357.534,105.604 358.5,107.5C 360.798,108.898 361.464,110.731 360.5,113C 361.448,113.483 362.448,113.649 363.5,113.5C 363.461,115.359 364.294,116.692 366,117.5C 366.494,119.134 366.66,120.801 366.5,122.5C 367.5,122.5 368.5,122.5 369.5,122.5C 369.5,122.833 369.5,123.167 369.5,123.5C 368.272,124.306 367.272,125.306 366.5,126.5C 366.5,125.5 366.5,124.5 366.5,123.5C 344.49,123.167 322.49,123.5 300.5,124.5C 302.173,126.523 302.84,128.856 302.5,131.5C 300.769,130.015 299.769,128.015 299.5,125.5C 301.814,118.415 304.314,111.415 307,104.5C 308.074,103.382 309.24,102.382 310.5,101.5C 311.75,96.6547 314.25,92.6547 318,89.5C 322.333,81.5 326.667,73.5 331,65.5C 331.667,64.8333 332.333,64.1667 333,63.5C 336.136,65.164 337.303,67.8307 336.5,71.5C 337.833,71.5 339.167,71.5 340.5,71.5C 340.263,72.791 340.596,73.791 341.5,74.5 Z"/></g>
<g><path style="opacity:0.993" fill="#003e5b" d="M 263.5,60.5 C 264.049,62.9013 264.882,65.2346 266,67.5C 268.422,71.3438 271.089,75.0105 274,78.5C 275.691,84.5732 278.691,89.9065 283,94.5C 288.115,103.731 292.948,113.064 297.5,122.5C 275.831,122.333 254.164,122.5 232.5,123C 231.263,123.232 230.263,123.732 229.5,124.5C 228.167,124.5 226.833,124.5 225.5,124.5C 224.596,123.791 224.263,122.791 224.5,121.5C 226.167,121.5 227.833,121.5 229.5,121.5C 229.5,119.833 229.5,118.167 229.5,116.5C 232.262,112.598 234.929,107.932 237.5,102.5C 236.466,99.9428 237.466,98.6095 240.5,98.5C 240.5,97.5 240.5,96.5 240.5,95.5C 242.969,94.3933 243.969,92.3933 243.5,89.5C 244.117,89.6107 244.617,89.944 245,90.5C 245.467,86.9142 246.967,83.9142 249.5,81.5C 248.098,80.1575 248.431,79.3242 250.5,79C 250.167,78.6667 249.833,78.3333 249.5,78C 250.448,77.5172 251.448,77.3505 252.5,77.5C 252.5,76.5 252.5,75.5 252.5,74.5C 254.481,72.4119 256.315,70.0785 258,67.5C 258.494,65.8659 258.66,64.1992 258.5,62.5C 260.322,62.1692 261.989,61.5025 263.5,60.5 Z"/></g>
<g><path style="opacity:0.012" fill="#003a5c" d="M 252.5,74.5 C 251.475,74.1034 251.308,73.4368 252,72.5C 252.464,73.0944 252.631,73.7611 252.5,74.5 Z"/></g>
<g><path style="opacity:0.008" fill="#003e52" d="M 243.5,89.5 C 242.833,88.1667 242.833,88.1667 243.5,89.5 Z"/></g>
<g><path style="opacity:0.012" fill="#000100" d="M 240.5,95.5 C 239.833,94.1667 239.833,94.1667 240.5,95.5 Z"/></g>
<g><path style="opacity:0.957" fill="#016684" d="M 357.5,101.5 C 359.256,102.552 359.923,104.219 359.5,106.5C 360.5,106.5 361.5,106.5 362.5,106.5C 362.343,107.873 362.51,109.207 363,110.5C 366.042,114.076 368.209,118.076 369.5,122.5C 368.5,122.5 367.5,122.5 366.5,122.5C 366.66,120.801 366.494,119.134 366,117.5C 364.294,116.692 363.461,115.359 363.5,113.5C 362.448,113.649 361.448,113.483 360.5,113C 361.464,110.731 360.798,108.898 358.5,107.5C 357.534,105.604 357.201,103.604 357.5,101.5 Z"/></g>
<g><path style="opacity:0.11" fill="#011b53" d="M 229.5,116.5 C 229.5,118.167 229.5,119.833 229.5,121.5C 227.833,121.5 226.167,121.5 224.5,121.5C 225.335,120.057 226.668,119.057 228.5,118.5C 227.572,117.232 227.405,115.899 228,114.5C 228.278,115.416 228.778,116.082 229.5,116.5 Z"/></g>
<g><path style="opacity:0.749" fill="#021a26" d="M 297.5,122.5 C 298.338,122.842 298.672,123.508 298.5,124.5C 275.649,124.465 252.649,124.465 229.5,124.5C 230.263,123.732 231.263,123.232 232.5,123C 254.164,122.5 275.831,122.333 297.5,122.5 Z"/></g>
<g><path style="opacity:0.749" fill="#165c5b" d="M 369.5,122.5 C 371,123.588 372.333,124.921 373.5,126.5C 374.452,128.045 374.785,129.712 374.5,131.5C 372.633,129.031 370.967,126.364 369.5,123.5C 369.5,123.167 369.5,122.833 369.5,122.5 Z"/></g>
<g><path style="opacity:1" fill="#00a8d6" d="M 366.5,126.5 C 360.604,137.887 354.104,148.887 347,159.5C 345.667,162.833 344.333,166.167 343,169.5C 339.549,174.092 336.382,178.758 333.5,183.5C 332.504,183.586 331.671,183.252 331,182.5C 329.278,179.721 328.111,176.721 327.5,173.5C 326.5,173.5 325.5,173.5 324.5,173.5C 324.66,171.801 324.494,170.134 324,168.5C 320.177,163.5 317.011,158.167 314.5,152.5C 313.489,148.486 312.489,144.486 311.5,140.5C 310.5,140.5 309.5,140.5 308.5,140.5C 308.649,139.448 308.483,138.448 308,137.5C 306.758,135.141 305.258,133.141 303.5,131.5C 303.167,131.5 302.833,131.5 302.5,131.5C 302.84,128.856 302.173,126.523 300.5,124.5C 322.49,123.5 344.49,123.167 366.5,123.5C 366.5,124.5 366.5,125.5 366.5,126.5 Z"/></g>
<g><path style="opacity:1" fill="#2b9f99" d="M 369.5,123.5 C 370.967,126.364 372.633,129.031 374.5,131.5C 375.167,131.5 375.5,131.833 375.5,132.5C 376.148,134.086 376.648,135.753 377,137.5C 378.568,139.575 380.068,141.575 381.5,143.5C 382.15,145.435 382.483,147.435 382.5,149.5C 383.5,149.5 384.5,149.5 385.5,149.5C 385.215,151.288 385.548,152.955 386.5,154.5C 388.365,158.255 390.698,161.588 393.5,164.5C 395,165.588 396.333,166.921 397.5,168.5C 399.942,174.378 402.608,180.045 405.5,185.5C 382.29,183.563 358.957,182.897 335.5,183.5C 336.806,187.141 338.14,190.807 339.5,194.5C 336.663,196.172 335.996,195.506 337.5,192.5C 335.392,189.843 334.059,186.843 333.5,183.5C 336.382,178.758 339.549,174.092 343,169.5C 344.333,166.167 345.667,162.833 347,159.5C 354.104,148.887 360.604,137.887 366.5,126.5C 367.272,125.306 368.272,124.306 369.5,123.5 Z"/></g>
<g><path style="opacity:0.641" fill="#175653" d="M 375.5,132.5 C 376.978,133.97 378.311,135.637 379.5,137.5C 380.295,139.495 380.961,141.495 381.5,143.5C 380.068,141.575 378.568,139.575 377,137.5C 376.648,135.753 376.148,134.086 375.5,132.5 Z"/></g>
<g><path style="opacity:0.931" fill="#007495" d="M 303.5,131.5 C 305.258,133.141 306.758,135.141 308,137.5C 308.483,138.448 308.649,139.448 308.5,140.5C 309.5,140.5 310.5,140.5 311.5,140.5C 312.489,144.486 313.489,148.486 314.5,152.5C 312.824,151.817 312.157,150.483 312.5,148.5C 311.5,148.5 310.5,148.5 309.5,148.5C 309.662,146.473 309.495,144.473 309,142.5C 306.489,139.16 304.656,135.494 303.5,131.5 Z"/></g>
<g><path style="opacity:0.859" fill="#1b6460" d="M 381.5,143.5 C 383,144.588 384.333,145.921 385.5,147.5C 388.542,152.943 391.208,158.609 393.5,164.5C 390.698,161.588 388.365,158.255 386.5,154.5C 385.548,152.955 385.215,151.288 385.5,149.5C 384.5,149.5 383.5,149.5 382.5,149.5C 382.483,147.435 382.15,145.435 381.5,143.5 Z"/></g>
<g><path style="opacity:0.976" fill="#ccc550" d="M 192.5,183.5 C 215.833,183.5 239.167,183.5 262.5,183.5C 251.537,203.478 240.537,223.478 229.5,243.5C 229.5,244.167 229.5,244.833 229.5,245.5C 229.5,245.833 229.5,246.167 229.5,246.5C 228.508,246.672 227.842,246.338 227.5,245.5C 227.5,244.167 226.833,243.5 225.5,243.5C 222.543,234.365 218.043,226.032 212,218.5C 211.548,214.262 209.548,210.929 206,208.5C 204.932,205.004 203.598,201.671 202,198.5C 199.41,194.236 196.41,190.236 193,186.5C 192.517,185.552 192.351,184.552 192.5,183.5 Z"/></g>
<g><path style="opacity:0.069" fill="#080301" d="M 266.5,183.5 C 268.582,183.472 270.416,184.139 272,185.5C 318.265,266.063 364.432,346.396 410.5,426.5C 409.292,427.234 407.959,427.567 406.5,427.5C 402.681,425.886 400.848,422.886 401,418.5C 400.667,418.833 400.333,419.167 400,419.5C 399.451,417.24 398.284,415.574 396.5,414.5C 395.431,411.263 394.098,408.263 392.5,405.5C 390.781,402.624 388.781,399.958 386.5,397.5C 386.5,397.167 386.5,396.833 386.5,396.5C 384.88,393.864 383.213,391.197 381.5,388.5C 381.5,387.833 381.167,387.5 380.5,387.5C 380.785,385.712 380.452,384.045 379.5,382.5C 378.311,380.637 376.978,378.97 375.5,377.5C 375.167,376.833 374.833,376.167 374.5,375.5C 372.841,373.124 371.507,370.457 370.5,367.5C 369.817,367.137 369.15,366.804 368.5,366.5C 368.913,363.68 367.913,361.68 365.5,360.5C 365.715,358.821 365.048,357.821 363.5,357.5C 363.143,355.411 362.477,353.411 361.5,351.5C 360.311,349.637 358.978,347.97 357.5,346.5C 357.5,345.833 357.167,345.5 356.5,345.5C 355.339,342.522 354.005,339.522 352.5,336.5C 350.825,334.469 349.159,332.469 347.5,330.5C 346.17,327.296 345.004,323.962 344,320.5C 343.329,319.748 342.496,319.414 341.5,319.5C 341.5,319.167 341.5,318.833 341.5,318.5C 339.866,315.285 337.866,312.285 335.5,309.5C 335.657,308.127 335.49,306.793 335,305.5C 331.42,299.609 327.587,293.942 323.5,288.5C 322.5,285.167 321.5,281.833 320.5,278.5C 319.5,278.5 318.5,278.5 317.5,278.5C 317.913,275.68 316.913,273.68 314.5,272.5C 312.551,266.924 309.884,261.924 306.5,257.5C 306.167,257.5 305.833,257.5 305.5,257.5C 305.245,255.033 304.245,253.033 302.5,251.5C 302.649,250.448 302.483,249.448 302,248.5C 299.762,246.278 297.929,243.945 296.5,241.5C 295.193,238.22 293.527,235.22 291.5,232.5C 290.962,230.883 290.629,229.216 290.5,227.5C 289.5,227.5 288.5,227.5 287.5,227.5C 285.733,222.179 283.399,217.179 280.5,212.5C 279.478,210.456 278.478,208.456 277.5,206.5C 274.437,202.769 271.77,198.769 269.5,194.5C 267.704,191.104 266.704,187.437 266.5,183.5 Z"/></g>
<g><path style="opacity:1" fill="#3cb29c" d="M 405.5,185.5 C 407.201,186.211 408.201,187.545 408.5,189.5C 408.5,189.833 408.5,190.167 408.5,190.5C 406.665,189.878 405.498,188.544 405,186.5C 404,187.833 403,187.833 402,186.5C 390.612,205.287 379.779,224.287 369.5,243.5C 369.5,244.167 369.5,244.833 369.5,245.5C 369.167,245.5 368.833,245.5 368.5,245.5C 367.946,243.111 366.446,241.445 364,240.5C 363.51,239.207 363.343,237.873 363.5,236.5C 361.137,230.414 358.471,224.414 355.5,218.5C 353.467,216.035 351.633,213.368 350,210.5C 349.329,209.748 348.496,209.414 347.5,209.5C 346.761,209.631 346.094,209.464 345.5,209C 346.526,206.536 345.692,204.702 343,203.5C 341.278,200.721 340.111,197.721 339.5,194.5C 338.14,190.807 336.806,187.141 335.5,183.5C 358.957,182.897 382.29,183.563 405.5,185.5 Z"/></g>
<g><path style="opacity:1" fill="#4ebe9b" d="M 408.5,190.5 C 409.858,194.659 411.525,198.659 413.5,202.5C 414.667,204.079 416,205.412 417.5,206.5C 419.201,207.211 420.201,208.545 420.5,210.5C 420.801,215.307 422.801,218.974 426.5,221.5C 427.341,223.379 427.675,225.379 427.5,227.5C 428.5,227.5 429.5,227.5 430.5,227.5C 430.263,228.791 430.596,229.791 431.5,230.5C 432.167,230.5 432.5,230.833 432.5,231.5C 433.246,236.003 435.246,239.669 438.5,242.5C 438.833,242.5 439.167,242.5 439.5,242.5C 439.5,243.5 439.5,244.5 439.5,245.5C 439.167,245.5 438.833,245.5 438.5,245.5C 438.082,244.778 437.416,244.278 436.5,244C 414.169,243.5 391.836,243.333 369.5,243.5C 379.779,224.287 390.612,205.287 402,186.5C 403,187.833 404,187.833 405,186.5C 405.498,188.544 406.665,189.878 408.5,190.5 Z"/></g>
<g><path style="opacity:1" fill="#f1cf40" d="M 266.5,183.5 C 264.66,187.974 265.66,191.64 269.5,194.5C 270.137,197.456 270.637,200.456 271,203.5C 271.414,203.043 271.914,202.709 272.5,202.5C 273.429,203.689 273.762,205.022 273.5,206.5C 274.833,206.5 276.167,206.5 277.5,206.5C 277.054,209.01 277.72,211.01 279.5,212.5C 277.964,218.373 279.964,222.04 285.5,223.5C 285.215,225.288 285.548,226.955 286.5,228.5C 288.185,229.953 289.851,231.286 291.5,232.5C 293.527,235.22 295.193,238.22 296.5,241.5C 297.234,242.708 297.567,244.041 297.5,245.5C 296.833,245.5 296.167,245.5 295.5,245.5C 273.859,243.511 251.859,242.844 229.5,243.5C 240.537,223.478 251.537,203.478 262.5,183.5C 263.961,182.314 265.295,182.314 266.5,183.5 Z"/></g>
<g><path style="opacity:0.706" fill="#917b26" d="M 266.5,183.5 C 266.704,187.437 267.704,191.104 269.5,194.5C 265.66,191.64 264.66,187.974 266.5,183.5 Z"/></g>
<g><path style="opacity:0.004" fill="#70b51b" d="M 183.5,191.5 C 184.833,192.167 184.833,192.167 183.5,191.5 Z"/></g>
<g><path style="opacity:0.995" fill="#96bf48" d="M 192.5,183.5 C 192.351,184.552 192.517,185.552 193,186.5C 196.41,190.236 199.41,194.236 202,198.5C 203.598,201.671 204.932,205.004 206,208.5C 209.548,210.929 211.548,214.262 212,218.5C 218.043,226.032 222.543,234.365 225.5,243.5C 202.833,243.5 180.167,243.5 157.5,243.5C 157.5,242.5 157.5,241.5 157.5,240.5C 158.302,239.048 158.802,237.382 159,235.5C 160.255,234.789 161.421,233.956 162.5,233C 161.391,231.187 162.058,230.354 164.5,230.5C 166.389,227.16 167.723,223.16 168.5,218.5C 169.675,219.855 170.675,219.688 171.5,218C 170.199,216.384 170.199,214.884 171.5,213.5C 171.369,214.376 171.702,215.043 172.5,215.5C 173.562,213.978 174.229,212.312 174.5,210.5C 176.218,208.636 177.385,206.303 178,203.5C 178.333,203.833 178.667,204.167 179,204.5C 179.374,203.584 179.874,202.75 180.5,202C 179.949,200.602 179.616,199.268 179.5,198C 180.744,197.544 181.577,198.044 182,199.5C 183.044,197.128 183.544,194.795 183.5,192.5C 183.369,193.376 183.702,194.043 184.5,194.5C 186.053,192.735 186.386,190.902 185.5,189C 186.449,188.383 187.282,188.549 188,189.5C 188.151,186.881 188.985,184.547 190.5,182.5C 191.183,182.863 191.85,183.196 192.5,183.5 Z"/></g>
<g><path style="opacity:0.953" fill="#ad952d" d="M 269.5,194.5 C 271.77,198.769 274.437,202.769 277.5,206.5C 276.167,206.5 274.833,206.5 273.5,206.5C 273.762,205.022 273.429,203.689 272.5,202.5C 271.914,202.709 271.414,203.043 271,203.5C 270.637,200.456 270.137,197.456 269.5,194.5 Z"/></g>
<g><path style="opacity:0.851" fill="#347f66" d="M 408.5,189.5 C 410.256,190.552 410.923,192.219 410.5,194.5C 411.873,194.343 413.207,194.51 414.5,195C 413.978,195.561 413.645,196.228 413.5,197C 415.702,199.803 417.036,202.969 417.5,206.5C 416,205.412 414.667,204.079 413.5,202.5C 411.525,198.659 409.858,194.659 408.5,190.5C 408.5,190.167 408.5,189.833 408.5,189.5 Z"/></g>
<g><path style="opacity:0.012" fill="#93c046" d="M 174.5,210.5 C 173.833,209.167 173.833,209.167 174.5,210.5 Z"/></g>
<g><path style="opacity:0.824" fill="#8d7825" d="M 277.5,206.5 C 278.478,208.456 279.478,210.456 280.5,212.5C 280.167,212.5 279.833,212.5 279.5,212.5C 277.72,211.01 277.054,209.01 277.5,206.5 Z"/></g>
<g><path style="opacity:0.004" fill="#7ead3b" d="M 171.5,212.5 C 172.833,213.167 172.833,213.167 171.5,212.5 Z"/></g>
<g><path style="opacity:0.796" fill="#2f7462" d="M 420.5,210.5 C 422.256,211.552 422.923,213.219 422.5,215.5C 423.873,215.343 425.207,215.51 426.5,216C 425.248,217.828 425.248,219.661 426.5,221.5C 422.801,218.974 420.801,215.307 420.5,210.5 Z"/></g>
<g><path style="opacity:0.867" fill="#317861" d="M 426.5,221.5 C 428.284,222.574 429.451,224.24 430,226.5C 430.333,226.167 430.667,225.833 431,225.5C 431.494,227.134 431.66,228.801 431.5,230.5C 430.596,229.791 430.263,228.791 430.5,227.5C 429.5,227.5 428.5,227.5 427.5,227.5C 427.675,225.379 427.341,223.379 426.5,221.5 Z"/></g>
<g><path style="opacity:0.961" fill="#c5a833" d="M 279.5,212.5 C 279.833,212.5 280.167,212.5 280.5,212.5C 283.399,217.179 285.733,222.179 287.5,227.5C 288.5,227.5 289.5,227.5 290.5,227.5C 290.629,229.216 290.962,230.883 291.5,232.5C 289.851,231.286 288.185,229.953 286.5,228.5C 285.548,226.955 285.215,225.288 285.5,223.5C 279.964,222.04 277.964,218.373 279.5,212.5 Z"/></g>
<g><path style="opacity:0.475" fill="#287768" d="M 347.5,209.5 C 348.496,209.414 349.329,209.748 350,210.5C 351.633,213.368 353.467,216.035 355.5,218.5C 358.471,224.414 361.137,230.414 363.5,236.5C 361.108,233.402 358.942,230.069 357,226.5C 356.586,226.957 356.086,227.291 355.5,227.5C 353.138,221.421 350.471,215.421 347.5,209.5 Z"/></g>
<g><path style="opacity:0.749" fill="#2c6e5b" d="M 432.5,231.5 C 433.938,233.801 435.938,235.635 438.5,237C 437.862,238.707 437.862,240.54 438.5,242.5C 435.246,239.669 433.246,236.003 432.5,231.5 Z"/></g>
<g><path style="opacity:0.999" fill="#7ebe62" d="M 157.5,240.5 C 157.5,241.5 157.5,242.5 157.5,243.5C 180.167,243.5 202.833,243.5 225.5,243.5C 226.833,243.5 227.5,244.167 227.5,245.5C 226.833,245.5 226.167,245.5 225.5,245.5C 224.5,245.5 223.5,245.5 222.5,245.5C 201.167,245.5 179.833,245.5 158.5,245.5C 157.833,245.167 157.167,244.833 156.5,244.5C 156.737,243.209 156.404,242.209 155.5,241.5C 155.409,239.302 156.075,238.969 157.5,240.5 Z"/></g>
<g><path style="opacity:1" fill="#f1be37" d="M 229.5,243.5 C 251.859,242.844 273.859,243.511 295.5,245.5C 273.5,245.5 251.5,245.5 229.5,245.5C 229.5,244.833 229.5,244.167 229.5,243.5 Z"/></g>
<g><path style="opacity:1" fill="#66bf83" d="M 369.5,243.5 C 391.836,243.333 414.169,243.5 436.5,244C 437.416,244.278 438.082,244.778 438.5,245.5C 415.5,245.5 392.5,245.5 369.5,245.5C 369.5,244.833 369.5,244.167 369.5,243.5 Z"/></g>
<g><path style="opacity:1" fill="#83bd5a" d="M 368.5,245.5 C 368.833,245.5 369.167,245.5 369.5,245.5C 392.5,245.5 415.5,245.5 438.5,245.5C 438.833,245.5 439.167,245.5 439.5,245.5C 439.5,245.833 439.5,246.167 439.5,246.5C 416.898,247.157 394.232,247.823 371.5,248.5C 372.127,249.417 372.461,250.417 372.5,251.5C 370.634,249.999 369.301,247.999 368.5,245.5 Z"/></g>
<g><path style="opacity:0.213" fill="#030302" d="M 229.5,248.5 C 229.263,249.791 229.596,250.791 230.5,251.5C 231.947,255.59 233.447,259.59 235,263.5C 235.333,263.167 235.667,262.833 236,262.5C 236.737,264.596 237.903,266.263 239.5,267.5C 239.777,269.728 240.777,271.395 242.5,272.5C 244.333,275.826 245.833,279.826 247,284.5C 247.77,283.402 248.603,283.402 249.5,284.5C 249.238,285.978 249.571,287.311 250.5,288.5C 252.541,289.707 253.874,291.374 254.5,293.5C 255.185,295.414 255.685,297.414 256,299.5C 256.667,298.167 257.333,298.167 258,299.5C 258.495,301.473 258.662,303.473 258.5,305.5C 259.5,305.5 260.5,305.5 261.5,305.5C 261.5,305.833 261.5,306.167 261.5,306.5C 263.189,309.524 265.023,312.524 267,315.5C 267.494,317.134 267.66,318.801 267.5,320.5C 268.5,320.5 269.5,320.5 270.5,320.5C 272.386,323.455 273.386,326.789 273.5,330.5C 274.5,330.5 275.5,330.5 276.5,330.5C 277.846,334.036 278.846,337.702 279.5,341.5C 280.5,341.5 281.5,341.5 282.5,341.5C 284.733,345.638 286.733,349.972 288.5,354.5C 288.75,355.922 289.583,356.922 291,357.5C 291.494,359.134 291.66,360.801 291.5,362.5C 292.5,362.5 293.5,362.5 294.5,362.5C 294.157,364.483 294.824,365.817 296.5,366.5C 296.833,366.5 297.167,366.5 297.5,366.5C 299.062,372.269 301.729,377.269 305.5,381.5C 306.341,383.379 306.675,385.379 306.5,387.5C 307.5,387.5 308.5,387.5 309.5,387.5C 311.375,391.241 312.541,395.241 313,399.5C 313.414,399.043 313.914,398.709 314.5,398.5C 315.909,401.357 317.575,404.023 319.5,406.5C 318.391,408.214 319.058,408.881 321.5,408.5C 321.461,411.089 322.461,413.089 324.5,414.5C 324.421,415.93 324.754,417.264 325.5,418.5C 326.632,420.489 327.965,422.156 329.5,423.5C 329.932,424.71 330.599,425.71 331.5,426.5C 333.4,431.582 335.567,436.582 338,441.5C 338.333,441.167 338.667,440.833 339,440.5C 340.093,442.972 341.76,444.972 344,446.5C 345.092,449.044 345.759,451.711 346,454.5C 346.995,455.066 347.828,455.733 348.5,456.5C 348.201,458.604 348.534,460.604 349.5,462.5C 350.086,462.291 350.586,461.957 351,461.5C 352.646,463.055 352.979,464.721 352,466.5C 352.333,466.167 352.667,465.833 353,465.5C 353.934,466.858 354.768,468.192 355.5,469.5C 355.833,470.5 356.5,471.167 357.5,471.5C 358.401,475.504 359.401,478.837 360.5,481.5C 361.5,481.5 362.5,481.5 363.5,481.5C 363.259,484.034 364.259,485.7 366.5,486.5C 366.966,488.201 366.966,489.701 366.5,491C 390.831,491.5 415.164,491.667 439.5,491.5C 463.842,491.833 488.176,491.5 512.5,490.5C 513.246,489.264 513.579,487.93 513.5,486.5C 515.25,485.341 516.25,483.674 516.5,481.5C 517.496,481.414 518.329,481.748 519,482.5C 519.115,478.382 520.282,474.715 522.5,471.5C 524.539,470.089 525.539,468.089 525.5,465.5C 528.99,460.766 531.99,455.766 534.5,450.5C 536.01,448.678 537.343,446.678 538.5,444.5C 541.575,439.354 544.408,434.02 547,428.5C 548.087,430.932 548.587,430.598 548.5,427.5C 554.505,429.583 556.005,433.583 553,439.5C 541.374,459.251 529.874,479.085 518.5,499C 468.163,499.833 417.83,499.667 367.5,498.5C 322.269,419.342 276.602,340.675 230.5,262.5C 220.505,278.36 211.172,294.527 202.5,311C 212.988,329.075 223.488,347.242 234,365.5C 234.5,368 235,370.5 235.5,373C 235.561,374.711 234.894,376.044 233.5,377C 184.5,377.667 135.5,377.667 86.5,377C 84.8446,375.556 84.178,373.722 84.5,371.5C 86.5161,369.987 88.8494,369.153 91.5,369C 136.832,368.5 182.165,368.333 227.5,368.5C 227.579,365.729 227.079,363.063 226,360.5C 225.667,360.833 225.333,361.167 225,361.5C 223.927,359.639 222.76,357.806 221.5,356C 220.427,354.584 220.427,353.25 221.5,352C 220.552,351.517 219.552,351.351 218.5,351.5C 216.075,346.358 213.408,341.358 210.5,336.5C 210.167,336.5 209.833,336.5 209.5,336.5C 209.379,333.895 208.379,331.895 206.5,330.5C 206.579,329.07 206.246,327.736 205.5,326.5C 203.828,324.328 202.161,322.328 200.5,320.5C 198.908,316.195 196.741,312.195 194,308.5C 193.36,306.735 193.527,305.068 194.5,303.5C 198.757,294.386 203.757,285.719 209.5,277.5C 211.741,276.7 212.741,275.034 212.5,272.5C 214.539,271.089 215.539,269.089 215.5,266.5C 217.643,264.231 219.31,261.564 220.5,258.5C 220.5,257.833 220.833,257.5 221.5,257.5C 223.539,256.089 224.539,254.089 224.5,251.5C 225.85,250.517 226.85,249.184 227.5,247.5C 228.183,247.863 228.85,248.196 229.5,248.5 Z"/></g>
<g><path style="opacity:1" fill="#ec9623" d="M 229.5,245.5 C 251.5,245.5 273.5,245.5 295.5,245.5C 296.167,245.5 296.833,245.5 297.5,245.5C 297.5,246.5 297.5,247.5 297.5,248.5C 292.937,255.585 288.103,262.585 283,269.5C 280.418,274.243 278.418,279.243 277,284.5C 275.667,286.5 274,288.167 272,289.5C 269.903,295.621 267.07,301.288 263.5,306.5C 262.833,306.5 262.167,306.5 261.5,306.5C 261.5,306.167 261.5,305.833 261.5,305.5C 260.253,302.96 259.253,300.294 258.5,297.5C 257.333,295.921 256,294.588 254.5,293.5C 253.874,291.374 252.541,289.707 250.5,288.5C 249.571,287.311 249.238,285.978 249.5,284.5C 248.701,281.57 248.368,278.57 248.5,275.5C 247.167,275.5 245.833,275.5 244.5,275.5C 244.715,273.821 244.048,272.821 242.5,272.5C 242.408,270.152 241.408,268.486 239.5,267.5C 239.481,265.94 239.148,264.44 238.5,263C 236.177,258.826 233.51,254.993 230.5,251.5C 229.596,250.791 229.263,249.791 229.5,248.5C 229.5,247.833 229.5,247.167 229.5,246.5C 229.5,246.167 229.5,245.833 229.5,245.5 Z"/></g>
<g><path style="opacity:0.994" fill="#3cb39d" d="M 155.5,241.5 C 156.404,242.209 156.737,243.209 156.5,244.5C 156.712,246.384 157.712,247.717 159.5,248.5C 160.452,250.045 160.785,251.712 160.5,253.5C 161.5,253.5 162.5,253.5 163.5,253.5C 165.146,256.602 166.313,259.935 167,263.5C 176.18,276.834 184.347,290.5 191.5,304.5C 191.5,305.167 191.5,305.833 191.5,306.5C 168.5,306.5 145.5,306.5 122.5,306.5C 122.5,305.5 122.5,304.5 122.5,303.5C 122.201,301.396 122.534,299.396 123.5,297.5C 124.086,297.709 124.586,298.043 125,298.5C 126.584,294.279 127.918,290.612 129,287.5C 129.414,287.957 129.914,288.291 130.5,288.5C 131.466,286.604 131.799,284.604 131.5,282.5C 132.5,282.5 133.5,282.5 134.5,282.5C 134.201,280.396 134.534,278.396 135.5,276.5C 136.965,277.609 137.965,277.109 138.5,275C 137.446,273.612 137.28,272.112 138,270.5C 138.308,271.308 138.808,271.975 139.5,272.5C 140.452,270.955 140.785,269.288 140.5,267.5C 141.5,267.5 142.5,267.5 143.5,267.5C 143.5,265.5 143.5,263.5 143.5,261.5C 144.5,261.5 145.5,261.5 146.5,261.5C 146.5,259.5 146.5,257.5 146.5,255.5C 149.462,255.883 150.462,254.883 149.5,252.5C 150.325,251.614 151.325,251.281 152.5,251.5C 152.338,249.473 152.505,247.473 153,245.5C 153.414,245.957 153.914,246.291 154.5,246.5C 155.452,244.955 155.785,243.288 155.5,241.5 Z"/></g>
<g><path style="opacity:1" fill="#4fbe9b" d="M 156.5,244.5 C 157.167,244.833 157.833,245.167 158.5,245.5C 159.952,246.302 161.618,246.802 163.5,247C 173.333,247.167 183.167,247.333 193,247.5C 203.19,247.499 213.023,246.832 222.5,245.5C 223.5,245.5 224.5,245.5 225.5,245.5C 225.483,247.565 225.15,249.565 224.5,251.5C 222.621,252.895 221.621,254.895 221.5,257.5C 220.833,257.5 220.5,257.833 220.5,258.5C 219.533,259.806 218.199,260.473 216.5,260.5C 216.483,262.565 216.15,264.565 215.5,266.5C 213.621,267.895 212.621,269.895 212.5,272.5C 210.953,273.768 209.953,275.435 209.5,277.5C 203.757,285.719 198.757,294.386 194.5,303.5C 193.391,303.557 192.391,303.89 191.5,304.5C 184.347,290.5 176.18,276.834 167,263.5C 166.313,259.935 165.146,256.602 163.5,253.5C 162.5,253.5 161.5,253.5 160.5,253.5C 160.785,251.712 160.452,250.045 159.5,248.5C 157.712,247.717 156.712,246.384 156.5,244.5 Z"/></g>
<g><path style="opacity:1" fill="#60bf88" d="M 158.5,245.5 C 179.833,245.5 201.167,245.5 222.5,245.5C 213.023,246.832 203.19,247.499 193,247.5C 183.167,247.333 173.333,247.167 163.5,247C 161.618,246.802 159.952,246.302 158.5,245.5 Z"/></g>
<g><path style="opacity:0.82" fill="#425e3f" d="M 225.5,245.5 C 226.167,245.5 226.833,245.5 227.5,245.5C 227.842,246.338 228.508,246.672 229.5,246.5C 229.5,247.167 229.5,247.833 229.5,248.5C 228.85,248.196 228.183,247.863 227.5,247.5C 226.85,249.184 225.85,250.517 224.5,251.5C 225.15,249.565 225.483,247.565 225.5,245.5 Z"/></g>
<g><path style="opacity:1" fill="#dd6626" d="M 297.5,248.5 C 299.354,249.241 301.021,250.241 302.5,251.5C 302.755,253.967 303.755,255.967 305.5,257.5C 305.833,257.5 306.167,257.5 306.5,257.5C 306.336,260.187 306.503,262.854 307,265.5C 307.667,266.833 308.333,266.833 309,265.5C 309.49,266.793 309.657,268.127 309.5,269.5C 311.959,269.31 313.626,270.31 314.5,272.5C 314.992,274.819 315.992,276.819 317.5,278.5C 319.148,280.456 319.815,282.789 319.5,285.5C 320.5,285.5 321.5,285.5 322.5,285.5C 322.263,286.791 322.596,287.791 323.5,288.5C 326.161,294.32 328.494,300.32 330.5,306.5C 308.966,306.184 287.3,306.517 265.5,307.5C 264.508,307.672 263.842,307.338 263.5,306.5C 267.07,301.288 269.903,295.621 272,289.5C 274,288.167 275.667,286.5 277,284.5C 278.418,279.243 280.418,274.243 283,269.5C 288.103,262.585 292.937,255.585 297.5,248.5 Z"/></g>
<g><path style="opacity:0.831" fill="#9b4e1c" d="M 296.5,241.5 C 297.929,243.945 299.762,246.278 302,248.5C 302.483,249.448 302.649,250.448 302.5,251.5C 301.021,250.241 299.354,249.241 297.5,248.5C 297.5,247.5 297.5,246.5 297.5,245.5C 297.567,244.041 297.234,242.708 296.5,241.5 Z"/></g>
<g><path style="opacity:1" fill="#96bf48" d="M 439.5,246.5 C 439.5,246.833 439.5,247.167 439.5,247.5C 438.791,248.404 437.791,248.737 436.5,248.5C 436.657,249.873 436.49,251.207 436,252.5C 432.695,258.444 429.028,264.111 425,269.5C 419.822,282.656 413.322,294.989 405.5,306.5C 404.833,306.5 404.167,306.5 403.5,306.5C 403.318,304.325 402.651,302.325 401.5,300.5C 403.438,295.756 401.771,293.423 396.5,293.5C 396.261,291.533 396.594,289.699 397.5,288C 395.866,287.506 394.199,287.34 392.5,287.5C 392.5,285.167 392.5,282.833 392.5,280.5C 390.678,280.169 389.011,279.502 387.5,278.5C 386.979,274.828 386.313,271.162 385.5,267.5C 384.859,268.993 383.859,269.993 382.5,270.5C 382.051,266.952 381.051,263.619 379.5,260.5C 377.801,260.473 376.467,259.806 375.5,258.5C 373.688,256.539 372.688,254.206 372.5,251.5C 372.461,250.417 372.127,249.417 371.5,248.5C 394.232,247.823 416.898,247.157 439.5,246.5 Z"/></g>
<g><path style="opacity:1" fill="#cbc550" d="M 439.5,247.5 C 440.496,247.414 441.329,247.748 442,248.5C 442.575,252.339 444.409,255.339 447.5,257.5C 448.42,261.71 449.754,265.71 451.5,269.5C 452.5,269.5 453.5,269.5 454.5,269.5C 455.5,272.833 456.5,276.167 457.5,279.5C 458.5,279.5 459.5,279.5 460.5,279.5C 460.5,281.5 460.5,283.5 460.5,285.5C 461.5,285.5 462.5,285.5 463.5,285.5C 463.351,286.552 463.517,287.552 464,288.5C 465.491,290.664 466.991,292.664 468.5,294.5C 470.732,297.527 472.732,300.86 474.5,304.5C 474.5,305.167 474.5,305.833 474.5,306.5C 451.5,306.5 428.5,306.5 405.5,306.5C 413.322,294.989 419.822,282.656 425,269.5C 429.028,264.111 432.695,258.444 436,252.5C 436.49,251.207 436.657,249.873 436.5,248.5C 437.791,248.737 438.791,248.404 439.5,247.5 Z"/></g>
<g><path style="opacity:0.89" fill="#225b4c" d="M 224.5,251.5 C 224.539,254.089 223.539,256.089 221.5,257.5C 221.621,254.895 222.621,252.895 224.5,251.5 Z"/></g>
<g><path style="opacity:0.588" fill="#915c14" d="M 230.5,251.5 C 233.51,254.993 236.177,258.826 238.5,263C 239.148,264.44 239.481,265.94 239.5,267.5C 237.903,266.263 236.737,264.596 236,262.5C 235.667,262.833 235.333,263.167 235,263.5C 233.447,259.59 231.947,255.59 230.5,251.5 Z"/></g>
<g><path style="opacity:0.933" fill="#7c7a31" d="M 439.5,242.5 C 442.41,247.317 445.077,252.317 447.5,257.5C 444.409,255.339 442.575,252.339 442,248.5C 441.329,247.748 440.496,247.414 439.5,247.5C 439.5,247.167 439.5,246.833 439.5,246.5C 439.5,246.167 439.5,245.833 439.5,245.5C 439.5,244.5 439.5,243.5 439.5,242.5 Z"/></g>
<g><path style="opacity:0.702" fill="#6a3013" d="M 302.5,251.5 C 304.245,253.033 305.245,255.033 305.5,257.5C 303.755,255.967 302.755,253.967 302.5,251.5 Z"/></g>
<g><path style="opacity:0.937" fill="#317661" d="M 220.5,258.5 C 219.31,261.564 217.643,264.231 215.5,266.5C 216.15,264.565 216.483,262.565 216.5,260.5C 218.199,260.473 219.533,259.806 220.5,258.5 Z"/></g>
<g><path style="opacity:0.831" fill="#837f34" d="M 447.5,257.5 C 450.051,261.571 452.884,265.571 456,269.5C 457.804,274.44 460.137,279.107 463,283.5C 463.333,283.167 463.667,282.833 464,282.5C 465.267,286.596 466.767,290.596 468.5,294.5C 466.991,292.664 465.491,290.664 464,288.5C 463.517,287.552 463.351,286.552 463.5,285.5C 462.5,285.5 461.5,285.5 460.5,285.5C 460.5,283.5 460.5,281.5 460.5,279.5C 459.5,279.5 458.5,279.5 457.5,279.5C 456.5,276.167 455.5,272.833 454.5,269.5C 453.5,269.5 452.5,269.5 451.5,269.5C 449.754,265.71 448.42,261.71 447.5,257.5 Z"/></g>
<g><path style="opacity:0.682" fill="#5f7c2d" d="M 375.5,258.5 C 376.467,259.806 377.801,260.473 379.5,260.5C 381.051,263.619 382.051,266.952 382.5,270.5C 380.897,268.02 379.397,265.354 378,262.5C 377.667,262.833 377.333,263.167 377,263.5C 375.991,261.975 375.491,260.308 375.5,258.5 Z"/></g>
<g><path style="opacity:0.986" fill="#a44b1c" d="M 306.5,257.5 C 309.884,261.924 312.551,266.924 314.5,272.5C 313.626,270.31 311.959,269.31 309.5,269.5C 309.657,268.127 309.49,266.793 309,265.5C 308.333,266.833 307.667,266.833 307,265.5C 306.503,262.854 306.336,260.187 306.5,257.5 Z"/></g>
<g><path style="opacity:0.918" fill="#24684f" d="M 215.5,266.5 C 215.539,269.089 214.539,271.089 212.5,272.5C 212.621,269.895 213.621,267.895 215.5,266.5 Z"/></g>
<g><path style="opacity:1" fill="#799a3c" d="M 387.5,278.5 C 385.309,277.155 383.975,275.155 383.5,272.5C 381.3,273.456 380.967,272.79 382.5,270.5C 383.859,269.993 384.859,268.993 385.5,267.5C 386.313,271.162 386.979,274.828 387.5,278.5 Z"/></g>
<g><path style="opacity:0.38" fill="#844e0d" d="M 239.5,267.5 C 241.408,268.486 242.408,270.152 242.5,272.5C 240.777,271.395 239.777,269.728 239.5,267.5 Z"/></g>
<g><path style="opacity:0.859" fill="#234e41" d="M 212.5,272.5 C 212.741,275.034 211.741,276.7 209.5,277.5C 209.953,275.435 210.953,273.768 212.5,272.5 Z"/></g>
<g><path style="opacity:0.982" fill="#b07019" d="M 242.5,272.5 C 244.048,272.821 244.715,273.821 244.5,275.5C 245.833,275.5 247.167,275.5 248.5,275.5C 248.368,278.57 248.701,281.57 249.5,284.5C 248.603,283.402 247.77,283.402 247,284.5C 245.833,279.826 244.333,275.826 242.5,272.5 Z"/></g>
<g><path style="opacity:0.663" fill="#6e340e" d="M 314.5,272.5 C 316.913,273.68 317.913,275.68 317.5,278.5C 315.992,276.819 314.992,274.819 314.5,272.5 Z"/></g>
<g><path style="opacity:0.373" fill="#743513" d="M 317.5,278.5 C 318.5,278.5 319.5,278.5 320.5,278.5C 321.5,281.833 322.5,285.167 323.5,288.5C 322.596,287.791 322.263,286.791 322.5,285.5C 321.5,285.5 320.5,285.5 319.5,285.5C 319.815,282.789 319.148,280.456 317.5,278.5 Z"/></g>
<g><path style="opacity:1" fill="#729337" d="M 387.5,278.5 C 389.011,279.502 390.678,280.169 392.5,280.5C 392.5,282.833 392.5,285.167 392.5,287.5C 394.199,287.34 395.866,287.506 397.5,288C 396.594,289.699 396.261,291.533 396.5,293.5C 394.915,292.526 393.915,291.026 393.5,289C 391.114,288.716 390.448,287.716 391.5,286C 389.991,283.573 388.657,281.073 387.5,278.5 Z"/></g>
<g><path style="opacity:0.51" fill="#935f15" d="M 254.5,293.5 C 256,294.588 257.333,295.921 258.5,297.5C 259.253,300.294 260.253,302.96 261.5,305.5C 260.5,305.5 259.5,305.5 258.5,305.5C 258.662,303.473 258.495,301.473 258,299.5C 257.333,298.167 256.667,298.167 256,299.5C 255.685,297.414 255.185,295.414 254.5,293.5 Z"/></g>
<g><path style="opacity:0.995" fill="#749739" d="M 396.5,293.5 C 401.771,293.423 403.438,295.756 401.5,300.5C 402.651,302.325 403.318,304.325 403.5,306.5C 402.778,306.082 402.278,305.416 402,304.5C 401.667,304.833 401.333,305.167 401,305.5C 399.356,301.578 397.856,297.578 396.5,293.5 Z"/></g>
<g><path style="opacity:0.929" fill="#9f461c" d="M 323.5,288.5 C 327.587,293.942 331.42,299.609 335,305.5C 335.49,306.793 335.657,308.127 335.5,309.5C 334.833,308.5 334.167,307.5 333.5,306.5C 332.5,306.5 331.5,306.5 330.5,306.5C 328.494,300.32 326.161,294.32 323.5,288.5 Z"/></g>
<g><path style="opacity:0.733" fill="#91691a" d="M 474.5,304.5 C 475.496,304.414 476.329,304.748 477,305.5C 477.505,307.518 478.005,309.518 478.5,311.5C 476.461,310.328 475.128,308.662 474.5,306.5C 474.5,305.833 474.5,305.167 474.5,304.5 Z"/></g>
<g><path style="opacity:1" fill="#d84f32" d="M 330.5,306.5 C 331.5,306.5 332.5,306.5 333.5,306.5C 333.179,308.048 332.179,308.715 330.5,308.5C 330.216,311.632 329.383,314.632 328,317.5C 323.933,322.221 321.099,327.555 319.5,333.5C 318.178,333.33 317.011,333.663 316,334.5C 311.943,343.621 306.943,352.287 301,360.5C 300.685,362.586 300.185,364.586 299.5,366.5C 298.833,366.5 298.167,366.5 297.5,366.5C 297.167,366.5 296.833,366.5 296.5,366.5C 296.105,360.806 293.438,356.806 288.5,354.5C 286.733,349.972 284.733,345.638 282.5,341.5C 281.852,339.914 281.352,338.247 281,336.5C 274.738,327.304 269.572,317.637 265.5,307.5C 287.3,306.517 308.966,306.184 330.5,306.5 Z"/></g>
<g><path style="opacity:0.702" fill="#a8902c" d="M 403.5,306.5 C 404.167,306.5 404.833,306.5 405.5,306.5C 408.622,311.081 410.956,316.081 412.5,321.5C 411.778,321.082 411.278,320.416 411,319.5C 410.667,319.833 410.333,320.167 410,320.5C 408.466,316.776 406.966,313.11 405.5,309.5C 404.448,309.649 403.448,309.483 402.5,309C 403.252,308.329 403.586,307.496 403.5,306.5 Z"/></g>
<g><path style="opacity:0.993" fill="#1e928c" d="M 156.5,366.5 C 132.514,367.198 108.514,367.865 84.5,368.5C 84.5,369.5 84.5,370.5 84.5,371.5C 83.3659,369.034 83.1993,366.367 84,363.5C 84.3333,364.5 84.6667,365.5 85,366.5C 86.3186,364.75 86.8186,362.75 86.5,360.5C 87.5,360.5 88.5,360.5 89.5,360.5C 89.2011,358.396 89.5344,356.396 90.5,354.5C 91.086,354.709 91.586,355.043 92,355.5C 92.3333,353.833 92.6667,352.167 93,350.5C 93.3333,350.833 93.6667,351.167 94,351.5C 95.1628,349.715 95.8295,347.715 96,345.5C 96.6667,346.833 97.3333,346.833 98,345.5C 98.4955,343.527 98.6621,341.527 98.5,339.5C 99.5,339.5 100.5,339.5 101.5,339.5C 101.201,337.396 101.534,335.396 102.5,333.5C 103.086,333.709 103.586,334.043 104,334.5C 105.646,332.945 105.979,331.279 105,329.5C 105.667,330.833 106.333,330.833 107,329.5C 107.494,327.866 107.66,326.199 107.5,324.5C 108.5,324.5 109.5,324.5 110.5,324.5C 112.246,321.068 113.58,317.068 114.5,312.5C 115.086,312.709 115.586,313.043 116,313.5C 117.646,311.945 117.979,310.279 117,308.5C 117.77,309.598 118.603,309.598 119.5,308.5C 119.338,310.527 119.505,312.527 120,314.5C 121.194,312.377 121.86,310.043 122,307.5C 133.497,327.16 144.997,346.826 156.5,366.5 Z"/></g>
<g><path style="opacity:1" fill="#2ca19b" d="M 122.5,303.5 C 122.5,304.5 122.5,305.5 122.5,306.5C 145.5,306.5 168.5,306.5 191.5,306.5C 191.366,308.292 191.699,309.958 192.5,311.5C 190.983,311.511 189.816,312.177 189,313.5C 184.338,322.158 179.671,330.824 175,339.5C 171.289,345.354 167.456,351.021 163.5,356.5C 161.942,358.991 160.942,361.657 160.5,364.5C 158.821,364.285 157.821,364.952 157.5,366.5C 157.167,366.5 156.833,366.5 156.5,366.5C 144.997,346.826 133.497,327.16 122,307.5C 121.86,310.043 121.194,312.377 120,314.5C 119.505,312.527 119.338,310.527 119.5,308.5C 119.5,306.833 119.5,305.167 119.5,303.5C 120.5,303.5 121.5,303.5 122.5,303.5 Z"/></g>
<g><path style="opacity:1" fill="#3cb39d" d="M 192.5,311.5 C 193.5,311.5 194.5,311.5 195.5,311.5C 195.877,315.212 197.544,318.212 200.5,320.5C 201.185,322.414 201.685,324.414 202,326.5C 203.468,327.989 204.968,329.323 206.5,330.5C 206.621,333.105 207.621,335.105 209.5,336.5C 209.833,336.5 210.167,336.5 210.5,336.5C 210.5,338.5 210.5,340.5 210.5,342.5C 211.5,342.5 212.5,342.5 213.5,342.5C 213.5,344.5 213.5,346.5 213.5,348.5C 214.5,348.5 215.5,348.5 216.5,348.5C 217.926,354.261 220.76,359.261 225,363.5C 225.49,364.793 225.657,366.127 225.5,367.5C 202.661,367.831 179.994,367.497 157.5,366.5C 157.821,364.952 158.821,364.285 160.5,364.5C 160.942,361.657 161.942,358.991 163.5,356.5C 167.456,351.021 171.289,345.354 175,339.5C 179.671,330.824 184.338,322.158 189,313.5C 189.816,312.177 190.983,311.511 192.5,311.5 Z"/></g>
<g><path style="opacity:1" fill="#d4292a" d="M 333.5,306.5 C 334.167,307.5 334.833,308.5 335.5,309.5C 336.75,312.067 337.917,314.733 339,317.5C 339.671,318.252 340.504,318.586 341.5,318.5C 341.5,318.833 341.5,319.167 341.5,319.5C 342.108,320.8 342.775,322.133 343.5,323.5C 341.56,326.196 342.227,327.529 345.5,327.5C 345.285,329.179 345.952,330.179 347.5,330.5C 347.857,332.589 348.523,334.589 349.5,336.5C 351.659,339.693 353.993,342.693 356.5,345.5C 357.167,345.5 357.5,345.833 357.5,346.5C 358.746,350.704 360.746,354.37 363.5,357.5C 365.048,357.821 365.715,358.821 365.5,360.5C 366.371,363.112 367.037,365.779 367.5,368.5C 345.831,368.333 324.164,368.5 302.5,369C 300.179,370.713 299.179,369.88 299.5,366.5C 300.185,364.586 300.685,362.586 301,360.5C 306.943,352.287 311.943,343.621 316,334.5C 317.011,333.663 318.178,333.33 319.5,333.5C 321.099,327.555 323.933,322.221 328,317.5C 329.383,314.632 330.216,311.632 330.5,308.5C 332.179,308.715 333.179,308.048 333.5,306.5 Z"/></g>
<g><path style="opacity:1" fill="#f1cf3f" d="M 405.5,306.5 C 428.5,306.5 451.5,306.5 474.5,306.5C 472.719,310.338 471.219,314.338 470,318.5C 465.385,322.757 462.052,327.757 460,333.5C 453.474,344.563 446.974,355.563 440.5,366.5C 439.833,366.5 439.167,366.5 438.5,366.5C 437.815,364.586 437.315,362.586 437,360.5C 436.124,358.365 434.624,357.031 432.5,356.5C 432.614,353.784 431.614,351.784 429.5,350.5C 427.259,349.7 426.259,348.034 426.5,345.5C 425.448,345.649 424.448,345.483 423.5,345C 424.252,344.329 424.586,343.496 424.5,342.5C 421.575,336.682 418.742,330.682 416,324.5C 415.241,322.937 414.074,321.937 412.5,321.5C 410.956,316.081 408.622,311.081 405.5,306.5 Z"/></g>
<g><path style="opacity:1" fill="#ec9623" d="M 474.5,306.5 C 475.128,308.662 476.461,310.328 478.5,311.5C 481.721,315.808 484.388,320.475 486.5,325.5C 488.741,326.3 489.741,327.966 489.5,330.5C 491.374,332.082 492.707,334.082 493.5,336.5C 493.5,338.5 493.5,340.5 493.5,342.5C 494.5,342.5 495.5,342.5 496.5,342.5C 496.25,345.214 496.083,347.881 496,350.5C 496.853,348.875 497.853,348.542 499,349.5C 501.253,354.767 504.086,359.434 507.5,363.5C 509.104,364.287 509.771,365.62 509.5,367.5C 486.327,367.831 463.327,367.498 440.5,366.5C 446.974,355.563 453.474,344.563 460,333.5C 462.052,327.757 465.385,322.757 470,318.5C 471.219,314.338 472.719,310.338 474.5,306.5 Z"/></g>
<g><path style="opacity:0.859" fill="#297a6a" d="M 194.5,303.5 C 193.527,305.068 193.36,306.735 194,308.5C 196.741,312.195 198.908,316.195 200.5,320.5C 197.544,318.212 195.877,315.212 195.5,311.5C 194.5,311.5 193.5,311.5 192.5,311.5C 191.699,309.958 191.366,308.292 191.5,306.5C 191.5,305.833 191.5,305.167 191.5,304.5C 192.391,303.89 193.391,303.557 194.5,303.5 Z"/></g>
<g><path style="opacity:0.808" fill="#861919" d="M 335.5,309.5 C 337.866,312.285 339.866,315.285 341.5,318.5C 340.504,318.586 339.671,318.252 339,317.5C 337.917,314.733 336.75,312.067 335.5,309.5 Z"/></g>
<g><path style="opacity:0.69" fill="#9e8929" d="M 412.5,321.5 C 414.074,321.937 415.241,322.937 416,324.5C 418.742,330.682 421.575,336.682 424.5,342.5C 423.778,342.082 423.278,341.416 423,340.5C 422.667,340.833 422.333,341.167 422,341.5C 420.964,337.597 419.464,333.93 417.5,330.5C 416.448,330.649 415.448,330.483 414.5,330C 415.138,328.293 415.138,326.46 414.5,324.5C 413.448,324.649 412.448,324.483 411.5,324C 412.252,323.329 412.586,322.496 412.5,321.5 Z"/></g>
<g><path style="opacity:0.976" fill="#941c1e" d="M 341.5,319.5 C 342.496,319.414 343.329,319.748 344,320.5C 345.004,323.962 346.17,327.296 347.5,330.5C 345.952,330.179 345.285,329.179 345.5,327.5C 342.227,327.529 341.56,326.196 343.5,323.5C 342.775,322.133 342.108,320.8 341.5,319.5 Z"/></g>
<g><path style="opacity:0.549" fill="#895515" d="M 486.5,325.5 C 488.741,326.3 489.741,327.966 489.5,330.5C 487.592,329.514 486.592,327.848 486.5,325.5 Z"/></g>
<g><path style="opacity:0.725" fill="#277465" d="M 200.5,320.5 C 202.161,322.328 203.828,324.328 205.5,326.5C 206.246,327.736 206.579,329.07 206.5,330.5C 204.968,329.323 203.468,327.989 202,326.5C 201.685,324.414 201.185,322.414 200.5,320.5 Z"/></g>
<g><path style="opacity:0.718" fill="#89311f" d="M 261.5,306.5 C 262.167,306.5 262.833,306.5 263.5,306.5C 263.842,307.338 264.508,307.672 265.5,307.5C 269.572,317.637 274.738,327.304 281,336.5C 281.352,338.247 281.852,339.914 282.5,341.5C 281.5,341.5 280.5,341.5 279.5,341.5C 278.846,337.702 277.846,334.036 276.5,330.5C 275.5,330.5 274.5,330.5 273.5,330.5C 273.386,326.789 272.386,323.455 270.5,320.5C 269.5,320.5 268.5,320.5 267.5,320.5C 267.66,318.801 267.494,317.134 267,315.5C 265.023,312.524 263.189,309.524 261.5,306.5 Z"/></g>
<g><path style="opacity:0.918" fill="#8f1a1b" d="M 347.5,330.5 C 349.159,332.469 350.825,334.469 352.5,336.5C 354.005,339.522 355.339,342.522 356.5,345.5C 353.993,342.693 351.659,339.693 349.5,336.5C 348.523,334.589 347.857,332.589 347.5,330.5 Z"/></g>
<g><path style="opacity:0.694" fill="#1f5b50" d="M 206.5,330.5 C 208.379,331.895 209.379,333.895 209.5,336.5C 207.621,335.105 206.621,333.105 206.5,330.5 Z"/></g>
<g><path style="opacity:0.706" fill="#89791d" d="M 426.5,345.5 C 428.408,346.486 429.408,348.152 429.5,350.5C 429.408,348.152 428.408,346.486 426.5,345.5 Z"/></g>
<g><path style="opacity:0.998" fill="#b27019" d="M 493.5,336.5 C 498.89,344.264 503.556,352.598 507.5,361.5C 507.5,362.167 507.5,362.833 507.5,363.5C 504.086,359.434 501.253,354.767 499,349.5C 497.853,348.542 496.853,348.875 496,350.5C 496.083,347.881 496.25,345.214 496.5,342.5C 495.5,342.5 494.5,342.5 493.5,342.5C 493.5,340.5 493.5,338.5 493.5,336.5 Z"/></g>
<g><path style="opacity:0.008" fill="#048280" d="M 92.5,348.5 C 93.8333,349.167 93.8333,349.167 92.5,348.5 Z"/></g>
<g><path style="opacity:0.633" fill="#9e862a" d="M 429.5,350.5 C 431.614,351.784 432.614,353.784 432.5,356.5C 430.031,355.393 429.031,353.393 429.5,350.5 Z"/></g>
<g><path style="opacity:0.678" fill="#781315" d="M 357.5,346.5 C 358.978,347.97 360.311,349.637 361.5,351.5C 362.477,353.411 363.143,355.411 363.5,357.5C 360.746,354.37 358.746,350.704 357.5,346.5 Z"/></g>
<g><path style="opacity:0.765" fill="#a08b29" d="M 432.5,356.5 C 434.624,357.031 436.124,358.365 437,360.5C 437.315,362.586 437.815,364.586 438.5,366.5C 436.058,366.881 435.391,366.214 436.5,364.5C 435.965,362.729 435.131,362.396 434,363.5C 432.663,361.182 432.163,358.849 432.5,356.5 Z"/></g>
<g><path style="opacity:0.765" fill="#91351f" d="M 288.5,354.5 C 293.438,356.806 296.105,360.806 296.5,366.5C 294.824,365.817 294.157,364.483 294.5,362.5C 293.5,362.5 292.5,362.5 291.5,362.5C 291.66,360.801 291.494,359.134 291,357.5C 289.583,356.922 288.75,355.922 288.5,354.5 Z"/></g>
<g><path style="opacity:0.878" fill="#20695e" d="M 210.5,336.5 C 213.408,341.358 216.075,346.358 218.5,351.5C 219.552,351.351 220.552,351.517 221.5,352C 220.427,353.25 220.427,354.584 221.5,356C 222.76,357.806 223.927,359.639 225,361.5C 225.333,361.167 225.667,360.833 226,360.5C 227.079,363.063 227.579,365.729 227.5,368.5C 182.165,368.333 136.832,368.5 91.5,369C 88.8494,369.153 86.5161,369.987 84.5,371.5C 84.5,370.5 84.5,369.5 84.5,368.5C 108.514,367.865 132.514,367.198 156.5,366.5C 156.833,366.5 157.167,366.5 157.5,366.5C 179.994,367.497 202.661,367.831 225.5,367.5C 225.657,366.127 225.49,364.793 225,363.5C 220.76,359.261 217.926,354.261 216.5,348.5C 215.5,348.5 214.5,348.5 213.5,348.5C 213.5,346.5 213.5,344.5 213.5,342.5C 212.5,342.5 211.5,342.5 210.5,342.5C 210.5,340.5 210.5,338.5 210.5,336.5 Z"/></g>
<g><path style="opacity:0.878" fill="#905b14" d="M 507.5,361.5 C 509.446,362.035 510.446,363.368 510.5,365.5C 510.5,366.5 510.5,367.5 510.5,368.5C 487.167,368.5 463.833,368.5 440.5,368.5C 439.5,368.167 438.833,367.5 438.5,366.5C 439.167,366.5 439.833,366.5 440.5,366.5C 463.327,367.498 486.327,367.831 509.5,367.5C 509.771,365.62 509.104,364.287 507.5,363.5C 507.5,362.833 507.5,362.167 507.5,361.5 Z"/></g>
<g><path style="opacity:0.745" fill="#332007" d="M 510.5,365.5 C 511.434,366.568 511.768,367.901 511.5,369.5C 487.661,369.831 463.994,369.498 440.5,368.5C 463.833,368.5 487.167,368.5 510.5,368.5C 510.5,367.5 510.5,366.5 510.5,365.5 Z"/></g>
<g><path style="opacity:1" fill="#bb171a" d="M 297.5,366.5 C 298.167,366.5 298.833,366.5 299.5,366.5C 299.179,369.88 300.179,370.713 302.5,369C 324.164,368.5 345.831,368.333 367.5,368.5C 364.18,377.993 359.346,386.659 353,394.5C 350.767,402.515 346.767,409.515 341,415.5C 339.461,420.021 337.128,424.021 334,427.5C 333.888,424.553 332.388,423.22 329.5,423.5C 329.076,419.759 327.409,416.759 324.5,414.5C 322.461,413.089 321.461,411.089 321.5,408.5C 320.735,405.904 320.401,403.237 320.5,400.5C 319.5,400.5 318.5,400.5 317.5,400.5C 317.5,399.167 317.5,397.833 317.5,396.5C 316.5,396.5 315.5,396.5 314.5,396.5C 312.652,391.442 310.652,386.442 308.5,381.5C 307.5,381.5 306.5,381.5 305.5,381.5C 301.729,377.269 299.062,372.269 297.5,366.5 Z"/></g>
<g><path style="opacity:0.682" fill="#5b090b" d="M 368.5,366.5 C 369.15,366.804 369.817,367.137 370.5,367.5C 371.507,370.457 372.841,373.124 374.5,375.5C 371.416,373.293 369.416,370.293 368.5,366.5 Z"/></g>
<g><path style="opacity:1" fill="#a60f11" d="M 365.5,360.5 C 367.913,361.68 368.913,363.68 368.5,366.5C 369.416,370.293 371.416,373.293 374.5,375.5C 374.833,376.167 375.167,376.833 375.5,377.5C 376.058,379.823 376.725,382.157 377.5,384.5C 378.141,385.993 379.141,386.993 380.5,387.5C 381.167,387.5 381.5,387.833 381.5,388.5C 381.215,390.288 381.548,391.955 382.5,393.5C 384.16,394.172 385.493,395.172 386.5,396.5C 386.5,396.833 386.5,397.167 386.5,397.5C 387.968,399.916 388.635,402.583 388.5,405.5C 389.833,405.5 391.167,405.5 392.5,405.5C 394.098,408.263 395.431,411.263 396.5,414.5C 397.601,419.262 399.601,423.595 402.5,427.5C 401.909,428.151 401.243,428.818 400.5,429.5C 378.137,430.934 355.804,430.767 333.5,429C 332.934,428.005 332.267,427.172 331.5,426.5C 330.599,425.71 329.932,424.71 329.5,423.5C 332.388,423.22 333.888,424.553 334,427.5C 337.128,424.021 339.461,420.021 341,415.5C 346.767,409.515 350.767,402.515 353,394.5C 359.346,386.659 364.18,377.993 367.5,368.5C 367.037,365.779 366.371,363.112 365.5,360.5 Z"/></g>
<g><path style="opacity:0.851" fill="#67090b" d="M 375.5,377.5 C 376.978,378.97 378.311,380.637 379.5,382.5C 380.452,384.045 380.785,385.712 380.5,387.5C 379.141,386.993 378.141,385.993 377.5,384.5C 376.725,382.157 376.058,379.823 375.5,377.5 Z"/></g>
<g><path style="opacity:0.929" fill="#67070b" d="M 381.5,388.5 C 383.213,391.197 384.88,393.864 386.5,396.5C 385.493,395.172 384.16,394.172 382.5,393.5C 381.548,391.955 381.215,390.288 381.5,388.5 Z"/></g>
<g><path style="opacity:0.969" fill="#8d1113" d="M 305.5,381.5 C 306.5,381.5 307.5,381.5 308.5,381.5C 310.652,386.442 312.652,391.442 314.5,396.5C 315.5,396.5 316.5,396.5 317.5,396.5C 317.5,397.833 317.5,399.167 317.5,400.5C 318.5,400.5 319.5,400.5 320.5,400.5C 320.401,403.237 320.735,405.904 321.5,408.5C 319.058,408.881 318.391,408.214 319.5,406.5C 317.575,404.023 315.909,401.357 314.5,398.5C 313.914,398.709 313.414,399.043 313,399.5C 312.541,395.241 311.375,391.241 309.5,387.5C 308.5,387.5 307.5,387.5 306.5,387.5C 306.675,385.379 306.341,383.379 305.5,381.5 Z"/></g>
<g><path style="opacity:0.871" fill="#61080c" d="M 386.5,397.5 C 388.781,399.958 390.781,402.624 392.5,405.5C 391.167,405.5 389.833,405.5 388.5,405.5C 388.635,402.583 387.968,399.916 386.5,397.5 Z"/></g>
<g><path style="opacity:0.541" fill="#760f10" d="M 324.5,414.5 C 327.409,416.759 329.076,419.759 329.5,423.5C 327.965,422.156 326.632,420.489 325.5,418.5C 324.754,417.264 324.421,415.93 324.5,414.5 Z"/></g>
<g><path style="opacity:0.909" fill="#002c41" d="M 121.5,426.5 C 122.074,430.267 120.907,433.267 118,435.5C 115.812,440.779 113.145,445.779 110,450.5C 109.51,451.793 109.343,453.127 109.5,454.5C 108.325,454.281 107.325,454.614 106.5,455.5C 99.0504,466.154 92.717,477.487 87.5,489.5C 110.5,489.5 133.5,489.5 156.5,489.5C 156.5,490.167 156.5,490.833 156.5,491.5C 132.164,491.667 107.831,491.5 83.5,491C 83.8333,490.667 84.1667,490.333 84.5,490C 82.2177,487.603 80.8844,484.769 80.5,481.5C 79.5,481.5 78.5,481.5 77.5,481.5C 77.7852,479.712 77.4519,478.045 76.5,476.5C 72.8963,471.724 70.2296,466.39 68.5,460.5C 67.5,460.5 66.5,460.5 65.5,460.5C 63.6812,455.954 61.8479,451.287 60,446.5C 56.888,443.264 54.5546,439.597 53,435.5C 52.3333,434.167 51.6667,434.167 51,435.5C 50.6667,433.833 50.3333,432.167 50,430.5C 49.7216,431.416 49.2216,432.082 48.5,432.5C 48.1412,430.234 48.8078,428.401 50.5,427C 74.1643,426.5 97.831,426.333 121.5,426.5 Z"/></g>
<g><path style="opacity:0.256" fill="#000001" d="M 266.5,427.5 C 268.735,428.228 270.568,429.561 272,431.5C 282.769,450.714 293.769,469.714 305,488.5C 307.09,492.121 306.923,495.621 304.5,499C 231.167,499.667 157.833,499.667 84.5,499C 73.4595,479.751 62.2929,460.585 51,441.5C 49.4511,438.688 48.6178,435.688 48.5,432.5C 49.2216,432.082 49.7216,431.416 50,430.5C 50.3333,432.167 50.6667,433.833 51,435.5C 51.6667,434.167 52.3333,434.167 53,435.5C 54.5546,439.597 56.888,443.264 60,446.5C 61.8479,451.287 63.6812,455.954 65.5,460.5C 66.5,460.5 67.5,460.5 68.5,460.5C 70.2296,466.39 72.8963,471.724 76.5,476.5C 77.4519,478.045 77.7852,479.712 77.5,481.5C 78.5,481.5 79.5,481.5 80.5,481.5C 80.8844,484.769 82.2177,487.603 84.5,490C 84.1667,490.333 83.8333,490.667 83.5,491C 107.831,491.5 132.164,491.667 156.5,491.5C 180.833,491.5 205.167,491.5 229.5,491.5C 252.5,491.5 275.5,491.5 298.5,491.5C 299.124,491.083 299.457,490.416 299.5,489.5C 297.579,486.925 295.745,484.258 294,481.5C 293.51,480.207 293.343,478.873 293.5,477.5C 292.5,477.5 291.5,477.5 290.5,477.5C 290.598,475.447 289.931,473.78 288.5,472.5C 287.833,472.5 287.5,472.167 287.5,471.5C 285.472,466.395 283.472,461.395 281.5,456.5C 280.5,456.5 279.5,456.5 278.5,456.5C 278.539,453.911 277.539,451.911 275.5,450.5C 273.342,445.502 271.342,440.502 269.5,435.5C 268.5,435.5 267.5,435.5 266.5,435.5C 265.752,433.416 265.752,431.416 266.5,429.5C 264.075,428.351 264.075,427.684 266.5,427.5 Z"/></g>
<g><path style="opacity:0.741" fill="#740c0e" d="M 396.5,414.5 C 398.284,415.574 399.451,417.24 400,419.5C 400.333,419.167 400.667,418.833 401,418.5C 400.848,422.886 402.681,425.886 406.5,427.5C 406.5,428.167 406.5,428.833 406.5,429.5C 404.801,429.473 403.467,428.806 402.5,427.5C 399.601,423.595 397.601,419.262 396.5,414.5 Z"/></g>
<g><path style="opacity:0.998" fill="#045072" d="M 122.5,426.5 C 145.5,426.5 168.5,426.5 191.5,426.5C 191.66,428.199 191.494,429.866 191,431.5C 187.711,437.117 184.044,442.451 180,447.5C 173.571,461.525 166.737,475.359 159.5,489C 182.164,489.5 204.831,489.667 227.5,489.5C 228.167,489.5 228.833,489.5 229.5,489.5C 229.833,489.5 230.167,489.5 230.5,489.5C 230.167,490.167 229.833,490.833 229.5,491.5C 205.167,491.5 180.833,491.5 156.5,491.5C 156.5,490.833 156.5,490.167 156.5,489.5C 151.525,482.641 147.025,475.307 143,467.5C 136.886,461.886 133.22,454.886 132,446.5C 131.04,443.944 129.54,441.777 127.5,440C 126.852,438.56 126.519,437.06 126.5,435.5C 125.5,435.5 124.5,435.5 123.5,435.5C 123.037,432.518 122.704,429.518 122.5,426.5 Z"/></g>
<g><path style="opacity:0.998" fill="#018bb2" d="M 193.5,426.5 C 218.006,426.169 242.339,426.502 266.5,427.5C 264.075,427.684 264.075,428.351 266.5,429.5C 265.752,431.416 265.752,433.416 266.5,435.5C 264.716,434.426 263.549,432.76 263,430.5C 258.953,438.186 254.453,445.519 249.5,452.5C 248.675,453.386 247.675,453.719 246.5,453.5C 245.159,457.047 243.992,460.714 243,464.5C 237.718,472.495 233.218,480.828 229.5,489.5C 228.833,489.5 228.167,489.5 227.5,489.5C 227.291,488.078 226.791,486.745 226,485.5C 224.252,483.416 222.418,481.416 220.5,479.5C 219.754,478.264 219.421,476.93 219.5,475.5C 218.5,475.5 217.5,475.5 216.5,475.5C 215.957,471.985 214.957,468.652 213.5,465.5C 212.5,465.5 211.5,465.5 210.5,465.5C 209.626,462.103 208.459,458.77 207,455.5C 203.595,449.696 199.928,444.03 196,438.5C 194.261,434.689 193.428,430.689 193.5,426.5 Z"/></g>
<g><path style="opacity:1" fill="#970b0d" d="M 331.5,426.5 C 332.267,427.172 332.934,428.005 333.5,429C 355.804,430.767 378.137,430.934 400.5,429.5C 401.243,428.818 401.909,428.151 402.5,427.5C 403.467,428.806 404.801,429.473 406.5,429.5C 406.631,430.239 406.464,430.906 406,431.5C 404.414,432.376 402.914,433.376 401.5,434.5C 398.868,439.387 395.868,444.054 392.5,448.5C 389.949,451.635 388.449,455.301 388,459.5C 381.626,468.98 375.793,478.813 370.5,489C 393.164,489.5 415.831,489.667 438.5,489.5C 439.167,489.5 439.833,489.5 440.5,489.5C 440.167,490.167 439.833,490.833 439.5,491.5C 415.164,491.667 390.831,491.5 366.5,491C 366.966,489.701 366.966,488.201 366.5,486.5C 366.108,484.821 365.608,483.154 365,481.5C 362.579,477.921 360.079,474.588 357.5,471.5C 356.5,471.167 355.833,470.5 355.5,469.5C 355.699,464.866 353.699,461.866 349.5,460.5C 349.768,458.901 349.434,457.568 348.5,456.5C 347.828,455.733 346.995,455.066 346,454.5C 345.759,451.711 345.092,449.044 344,446.5C 341.76,444.972 340.093,442.972 339,440.5C 338.667,440.833 338.333,441.167 338,441.5C 335.567,436.582 333.4,431.582 331.5,426.5 Z"/></g>
<g><path style="opacity:0.998" fill="#db6426" d="M 477.5,426.5 C 501.212,426.187 524.878,426.52 548.5,427.5C 548.587,430.598 548.087,430.932 547,428.5C 544.408,434.02 541.575,439.354 538.5,444.5C 535.914,445.487 534.581,447.487 534.5,450.5C 531.99,455.766 528.99,460.766 525.5,465.5C 523.621,466.895 522.621,468.895 522.5,471.5C 519.583,474.21 517.583,477.543 516.5,481.5C 516.25,483.674 515.25,485.341 513.5,486.5C 512.363,487.789 511.03,488.789 509.5,489.5C 503.266,478.732 497.099,467.732 491,456.5C 488.108,455.158 486.775,452.825 487,449.5C 481.238,442.905 478.071,435.238 477.5,426.5 Z"/></g>
<g><path style="opacity:1" fill="#00a9d8" d="M 266.5,435.5 C 267.017,438.582 267.85,441.582 269,444.5C 269.333,444.167 269.667,443.833 270,443.5C 271.759,446.069 273.593,448.403 275.5,450.5C 275.995,452.482 276.495,454.482 277,456.5C 281.051,461.162 284.551,466.162 287.5,471.5C 287.5,472.167 287.833,472.5 288.5,472.5C 289.154,476.298 290.154,479.964 291.5,483.5C 292.791,483.263 293.791,483.596 294.5,484.5C 294.286,486.144 294.62,487.644 295.5,489C 273.836,489.5 252.169,489.667 230.5,489.5C 230.167,489.5 229.833,489.5 229.5,489.5C 233.218,480.828 237.718,472.495 243,464.5C 243.992,460.714 245.159,457.047 246.5,453.5C 247.675,453.719 248.675,453.386 249.5,452.5C 254.453,445.519 258.953,438.186 263,430.5C 263.549,432.76 264.716,434.426 266.5,435.5 Z"/></g>
<g><path style="opacity:1" fill="#d4292a" d="M 410.5,426.5 C 431.833,426.5 453.167,426.5 474.5,426.5C 474.653,431.703 472.819,436.037 469,439.5C 466.817,445.232 464.484,450.898 462,456.5C 457.181,462.133 452.848,468.133 449,474.5C 446.402,479.475 443.902,484.475 441.5,489.5C 441.167,489.5 440.833,489.5 440.5,489.5C 439.833,489.5 439.167,489.5 438.5,489.5C 434.707,478.725 429.04,469.225 421.5,461C 416.163,451.837 411.163,442.504 406.5,433C 407.208,430.232 408.708,429.399 411,430.5C 411.579,429.072 411.412,427.738 410.5,426.5 Z"/></g>
<g><path style="opacity:1" fill="#0b6b91" d="M 191.5,426.5 C 192.167,426.5 192.833,426.5 193.5,426.5C 193.428,430.689 194.261,434.689 196,438.5C 199.928,444.03 203.595,449.696 207,455.5C 208.459,458.77 209.626,462.103 210.5,465.5C 211.5,465.5 212.5,465.5 213.5,465.5C 214.957,468.652 215.957,471.985 216.5,475.5C 217.5,475.5 218.5,475.5 219.5,475.5C 219.421,476.93 219.754,478.264 220.5,479.5C 222.418,481.416 224.252,483.416 226,485.5C 226.791,486.745 227.291,488.078 227.5,489.5C 204.831,489.667 182.164,489.5 159.5,489C 166.737,475.359 173.571,461.525 180,447.5C 184.044,442.451 187.711,437.117 191,431.5C 191.494,429.866 191.66,428.199 191.5,426.5 Z"/></g>
<g><path style="opacity:1" fill="#bc181b" d="M 410.5,426.5 C 411.412,427.738 411.579,429.072 411,430.5C 408.708,429.399 407.208,430.232 406.5,433C 411.163,442.504 416.163,451.837 421.5,461C 429.04,469.225 434.707,478.725 438.5,489.5C 415.831,489.667 393.164,489.5 370.5,489C 375.793,478.813 381.626,468.98 388,459.5C 388.449,455.301 389.949,451.635 392.5,448.5C 395.868,444.054 398.868,439.387 401.5,434.5C 402.914,433.376 404.414,432.376 406,431.5C 406.464,430.906 406.631,430.239 406.5,429.5C 406.5,428.833 406.5,428.167 406.5,427.5C 407.959,427.567 409.292,427.234 410.5,426.5 Z"/></g>
<g><path style="opacity:1" fill="#d94f32" d="M 474.5,426.5 C 475.5,426.5 476.5,426.5 477.5,426.5C 478.071,435.238 481.238,442.905 487,449.5C 486.775,452.825 488.108,455.158 491,456.5C 497.099,467.732 503.266,478.732 509.5,489.5C 486.833,489.5 464.167,489.5 441.5,489.5C 443.902,484.475 446.402,479.475 449,474.5C 452.848,468.133 457.181,462.133 462,456.5C 464.484,450.898 466.817,445.232 469,439.5C 472.819,436.037 474.653,431.703 474.5,426.5 Z"/></g>
<g><path style="opacity:1" fill="#003e5b" d="M 121.5,426.5 C 121.833,426.5 122.167,426.5 122.5,426.5C 122.704,429.518 123.037,432.518 123.5,435.5C 124.5,435.5 125.5,435.5 126.5,435.5C 126.519,437.06 126.852,438.56 127.5,440C 129.54,441.777 131.04,443.944 132,446.5C 133.22,454.886 136.886,461.886 143,467.5C 147.025,475.307 151.525,482.641 156.5,489.5C 133.5,489.5 110.5,489.5 87.5,489.5C 92.717,477.487 99.0504,466.154 106.5,455.5C 107.325,454.614 108.325,454.281 109.5,454.5C 109.343,453.127 109.51,451.793 110,450.5C 113.145,445.779 115.812,440.779 118,435.5C 120.907,433.267 122.074,430.267 121.5,426.5 Z"/></g>
<g><path style="opacity:0.757" fill="#007394" d="M 266.5,435.5 C 267.5,435.5 268.5,435.5 269.5,435.5C 271.342,440.502 273.342,445.502 275.5,450.5C 273.593,448.403 271.759,446.069 270,443.5C 269.667,443.833 269.333,444.167 269,444.5C 267.85,441.582 267.017,438.582 266.5,435.5 Z"/></g>
<g><path style="opacity:0.82" fill="#642d12" d="M 538.5,444.5 C 537.343,446.678 536.01,448.678 534.5,450.5C 534.581,447.487 535.914,445.487 538.5,444.5 Z"/></g>
<g><path style="opacity:0.525" fill="#00637f" d="M 275.5,450.5 C 277.539,451.911 278.539,453.911 278.5,456.5C 279.5,456.5 280.5,456.5 281.5,456.5C 283.472,461.395 285.472,466.395 287.5,471.5C 284.551,466.162 281.051,461.162 277,456.5C 276.495,454.482 275.995,452.482 275.5,450.5 Z"/></g>
<g><path style="opacity:0.467" fill="#4e0405" d="M 348.5,456.5 C 349.434,457.568 349.768,458.901 349.5,460.5C 353.699,461.866 355.699,464.866 355.5,469.5C 354.768,468.192 353.934,466.858 353,465.5C 352.667,465.833 352.333,466.167 352,466.5C 352.979,464.721 352.646,463.055 351,461.5C 350.586,461.957 350.086,462.291 349.5,462.5C 348.534,460.604 348.201,458.604 348.5,456.5 Z"/></g>
<g><path style="opacity:0.914" fill="#7d3916" d="M 525.5,465.5 C 525.539,468.089 524.539,470.089 522.5,471.5C 522.621,468.895 523.621,466.895 525.5,465.5 Z"/></g>
<g><path style="opacity:0.694" fill="#670508" d="M 357.5,471.5 C 360.079,474.588 362.579,477.921 365,481.5C 365.608,483.154 366.108,484.821 366.5,486.5C 364.259,485.7 363.259,484.034 363.5,481.5C 362.5,481.5 361.5,481.5 360.5,481.5C 359.401,478.837 358.401,475.504 357.5,471.5 Z"/></g>
<g><path style="opacity:0.624" fill="#3f1d0e" d="M 522.5,471.5 C 520.282,474.715 519.115,478.382 519,482.5C 518.329,481.748 517.496,481.414 516.5,481.5C 517.583,477.543 519.583,474.21 522.5,471.5 Z"/></g>
<g><path style="opacity:0.529" fill="#005f7b" d="M 288.5,472.5 C 289.931,473.78 290.598,475.447 290.5,477.5C 291.5,477.5 292.5,477.5 293.5,477.5C 293.343,478.873 293.51,480.207 294,481.5C 295.745,484.258 297.579,486.925 299.5,489.5C 299.457,490.416 299.124,491.083 298.5,491.5C 297.19,489.17 295.857,486.836 294.5,484.5C 293.791,483.596 292.791,483.263 291.5,483.5C 290.154,479.964 289.154,476.298 288.5,472.5 Z"/></g>
<g><path style="opacity:0.953" fill="#008fb7" d="M 294.5,484.5 C 295.857,486.836 297.19,489.17 298.5,491.5C 275.5,491.5 252.5,491.5 229.5,491.5C 229.833,490.833 230.167,490.167 230.5,489.5C 252.169,489.667 273.836,489.5 295.5,489C 294.62,487.644 294.286,486.144 294.5,484.5 Z"/></g>
<g><path style="opacity:0.953" fill="#b44329" d="M 513.5,486.5 C 513.579,487.93 513.246,489.264 512.5,490.5C 488.176,491.5 463.842,491.833 439.5,491.5C 439.833,490.833 440.167,490.167 440.5,489.5C 440.833,489.5 441.167,489.5 441.5,489.5C 464.167,489.5 486.833,489.5 509.5,489.5C 511.03,488.789 512.363,487.789 513.5,486.5 Z"/></g>
</svg>
